<svg id="Layer_1" data-name="Layer 1" xmlns="http://www.w3.org/2000/svg" viewBox="0 0 404.39 292"><defs><style>.cls-1{fill:#f3d694;}</style></defs><title>Artboard 23</title><g id="Canvas"><g id="Vector"><path id="path0_fill" data-name="path0 fill" class="cls-1" d="M212.05,108.75c-36.78,7.67-75.32,8.54-110.57,21.25-11.16,3.94-24.08,12.92-21.23,24.52.87,4.16,3.94,7.45,5.25,11.61,2,6.13,0,12.7-2.84,18.61C71.71,207.08,47,222,22,221.32c.66,17.74,22.11,28.68,39.63,25.84s32-14.89,46.19-25.62c51.89-39.2,111.23-66.36,170.12-93.3,30.21-13.79,60.65-27.15,90-42.48C411.29,63,344.73,70,329,74.37,289.77,84.88,252.12,100.65,212.05,108.75Z"/></g></g></svg>