<svg id="Layer_1" data-name="Layer 1" xmlns="http://www.w3.org/2000/svg" viewBox="0 0 404.39 292"><defs><style>.cls-1{fill:#f68a5a;}</style></defs><title>Artboard 27</title><g id="Canvas"><g id="Vector"><path id="path0_fill" data-name="path0 fill" class="cls-1" d="M207.76,102.67c-36.78,7.66-75.32,8.54-110.57,21.24C86,127.85,73.11,136.83,76,148.44c.87,4.16,3.94,7.44,5.25,11.6,2,6.13,0,12.7-2.85,18.62C67.42,201,42.68,215.89,17.72,215.23c.65,17.74,22.11,28.69,39.63,25.84s32-14.89,46.19-25.62c51.89-39.2,111.23-66.36,170.12-93.29,30.21-13.8,60.65-27.16,90-42.49,43.34-22.77-23.21-15.77-39-11.39C285.48,78.79,247.83,94.56,207.76,102.67Z"/></g></g></svg>