<svg id="Layer_1" data-name="Layer 1" xmlns="http://www.w3.org/2000/svg" viewBox="0 0 404.39 292"><defs><style>.cls-1{fill:#f68a5a;}.cls-2{fill:#333;}.cls-3{fill:#ece2bb;}.cls-4{fill:#174274;}</style></defs><title>Artboard 27 copy 2</title><path class="cls-1" d="M55.52,153.62c-4.09,14.07,20.31,11.18,19.62,5.87a8.9,8.9,0,0,0-2-3.79c-2.76-3.82-3-8.83-9-6.36-2.13.87-5.9.82-7.54,2.57A4.23,4.23,0,0,0,55.52,153.62Z"/><path class="cls-2" d="M101.12,178.2c-7.29-7.71-13,2.87-9.52,4.92a8.49,8.49,0,0,0,2.91.88c3.15.61,6.26,2.71,6.6-.67.12-1.2,1.3-2.61.74-4A3.67,3.67,0,0,0,101.12,178.2Z"/><path class="cls-1" d="M339.28,46.81c-2,5.73,8.15,5.09,8,2.87a3.73,3.73,0,0,0-.76-1.61c-1.05-1.64-1-3.72-3.59-2.83-.9.31-2.46.2-3.18.89A1.68,1.68,0,0,0,339.28,46.81Z"/><path class="cls-3" d="M64,207.74c-7.78-5.58-11.3,10.09-7.88,10.81a5.73,5.73,0,0,0,2.78-.43c2.95-.87,6.08.08,5.88-4.18-.08-1.51.77-3.82,0-5.21A2.73,2.73,0,0,0,64,207.74Z"/><path class="cls-3" d="M247.64,174c-10.21-7.32-14.83,13.24-10.34,14.19a7.48,7.48,0,0,0,3.65-.57c3.87-1.14,8,.11,7.72-5.49-.1-2,1-5,.07-6.83A3.47,3.47,0,0,0,247.64,174Z"/><path class="cls-4" d="M266.53,156.19c9.65,0,9.67-15,0-15s-9.67,15,0,15Z"/><path class="cls-2" d="M351.38,106.19c23.51,6.83,18.68-33.93,9.81-32.77-2.4.31-4.37,2-6.33,3.4-6.38,4.6-14.75,5-10.63,15.09,1.46,3.56,1.38,9.85,4.29,12.6A7.09,7.09,0,0,0,351.38,106.19Z"/></svg>