<svg id="Layer_1" data-name="Layer 1" xmlns="http://www.w3.org/2000/svg" viewBox="0 0 404.39 292"><defs><style>.cls-1{fill:#955b48;}</style></defs><title>Artboard 26</title><g id="Canvas"><g id="Vector"><path id="path0_fill" data-name="path0 fill" class="cls-1" d="M323,98.27c-18.12,4.74-37,9.51-55.43,6.1-11.2-2.1-21.67-7.11-32.74-9.92-10-2.62-20.44-3.35-30.43-6-24-6.15-44.76-22.29-69-27.28C118.44,57.76,100.71,60,84,55.72c-8.73-2.18-16.9-6.06-25.55-8.54s-18.18-3.46-26.42.2S17.6,60.3,19.9,69c21.94,5.67,45.13.73,67.78.67,19.41,0,38.66,3.62,57.53,8.11C159.06,81.09,173,85,185.42,91.89c8.78,4.86,17.61,13,16.65,23-.87,8.74-8.63,14.8-14.32,21.54-7.37,8.73-11.66,19.68-18.84,28.65-12.43,15.49-32,23-50.72,29.82S79,208.75,60,202.91c-6.41-2-12.4-5.31-18.91-6.76a5.35,5.35,0,0,0-4,.24c-1.15.78-1.54,2.31-1.75,3.67A82.49,82.49,0,0,0,52.07,265.7a19.43,19.43,0,0,0,6.31,5.64c6.81,3.26,14.6-1.28,20.87-5.51a904.31,904.31,0,0,1,118.82-68.45c4.86-2.29,9.78-4.6,15.13-5.12,15.07-1.37,27.2,11.52,41.24,17.13s30.23,3.59,44.86-.6,28.74-10.34,43.74-13c12.21-2.18,25-2.06,36.33-7a9.92,9.92,0,0,0,4.37-3c3.05-4.07-.16-9.71-3-13.9a112.91,112.91,0,0,1-18.08-45.27c-1.54-9.71-1.93-23.31-9-30.92C346.16,88,332,96,323,98.27Z"/></g></g></svg>