<svg id="Layer_1" data-name="Layer 1" xmlns="http://www.w3.org/2000/svg" viewBox="0 0 404.39 292"><defs><style>.cls-1{fill:#ece2bb;}</style></defs><title>Artboard 15</title><path class="cls-1" d="M357.67,161.11c8.76,1.71,11.11,15.1,10.42,25.07-.56,8,3.14,31,.11,38.75s-7.77,6.66-13.37,10.68c-6.92,4.95-9.87,14.11-16.12,19.83-8.1,7.42-25.63,13.2-34.44,19.82-17.4,13.08-24,30.53-41.75,43.19-11.13,7.93-17.3,15-39-.1-9.16-6.35-12.38-18.53-22.36-23.48-16.33-8.11-35.81-11.94-50.54-23.11-19.38-14.68-17.07-21.14-29.83-42.81-7.43-12.62-13-32.1-12.82-48.1.09-9.14,22.44-22.43,23.24-42.33,1.36-33.7,53.35-40.84,81.73-56.22C293.21,38.76,265.78,143.19,357.67,161.11Z"/></svg>