<svg id="Layer_1" data-name="Layer 1" xmlns="http://www.w3.org/2000/svg" viewBox="0 0 404.39 292"><defs><style>.cls-1{fill:#f68a5a;}</style></defs><title>Artboard 17</title><path class="cls-1" d="M119.56,191.78a13.92,13.92,0,0,1-3.75,2.7.85.85,0,0,1-.93-.12,3,3,0,0,0-3.06-.46,3.86,3.86,0,0,1-1.32.09c-.21,0-.49-.1-.62.06-.7.84-1.7.6-2.51,1-.18.09-.41.06-.59.16-.37.2-.74.43-1.1.67-.11.07-.2.3-.31.27-.68-.16-1-4.37-1.43-3.8-.27.38-.55.63-1,0a.53.53,0,0,0-.54-.15c-.77.23-1.51.57-2.3.76a7.37,7.37,0,0,1-1.56,0,5.5,5.5,0,0,0-2.42.28,1.32,1.32,0,0,1-1.62-.35c-.24.79-.71.78-1.26.64a6.15,6.15,0,0,0-1.6-.09,17.76,17.76,0,0,0-2.19.13,1.15,1.15,0,0,0-.71.5,1.67,1.67,0,0,1-2.12.71c-1-.38-1.93.12-2.89.3s-1.76.76-2.8.17c-.21-.12-.5.08-.71.25-.51.43-1,1-1.51,1.38a2.88,2.88,0,0,1-2.25.5c-.9-.13-1.86-.51-2.71.08a1.72,1.72,0,0,1-1.15.06,2.18,2.18,0,0,0-1.64.55c-.31.25-.61.49-1,0-.09-.1-.26-.06-.39-.06a5,5,0,0,0-1.34,0,14.27,14.27,0,0,0-1.76.64c-.22.08-.46.32-.65.21-1.13-.69-2.22-.48-3.33-.66-.47-.08-.79.25-1.14.52s-.82.68-1.23,1c-.05,0-.09.1-.14.09-.45-.07-1-.33-1.34-.19s-.54.74-1,.7c-.33,0-.61.47-.94.6-.88.34,1.06-5.07.18-4.77a4.26,4.26,0,0,0-.81.38,2.44,2.44,0,0,1-2.85-.29c-.27-1.34-.55-2.78-.84-4.21-1.05-5,4.14-10.09,3.09-15.13-.72-3.44-1.46-6.87-2.18-10.32-1.2-5.76-3.7-9.07-4.83-14.85s-1.67-9.56-2.68-15.06c-.39-2.16.58-3.78.25-5.95,0-.29-.79-4.28-.62-4.09A21.74,21.74,0,0,1,44,124.93c.25-.9.46-1.69,1.06-1.91.92-.34,2-2,2.52-1.74a3.26,3.26,0,0,0,1.49,0,3.3,3.3,0,0,1,.61-.08c.78.14,1.57.38,2.34.44a1.53,1.53,0,0,0,1.24-.4,2.1,2.1,0,0,1,2.08-.71c.68.14,1.27-.41,1.45-.29,1.22.8.38,3.19,1.6,2.87a16.35,16.35,0,0,1,2.5,1.12c.41.17.42.42.75.17.56-.43.53-.93,1.31-.89.32,0,.58-.57.88-.85.15-.13.34-.32.48-.25.71.33,1.41.09,2.14.52a3.64,3.64,0,0,0,1.43.41c.37,0,.63,1.14.87,1.56.39.66.83,1,1.38.94a1.42,1.42,0,0,1,.93.3c.46.35.83.57,1.23.12a2.37,2.37,0,0,1,.91-.52,3.35,3.35,0,0,0,1.18-.87,2.35,2.35,0,0,1,2-1c.31.06.61,1,.92,1.07a10,10,0,0,1,1,.3c.48.19,1,.51,1.4.15.09-.08.26,0,.39,0a1.09,1.09,0,0,0,1.19-.48,19.62,19.62,0,0,1,2.1-2.48c.37-.29.69-.67,1.05-1a7.36,7.36,0,0,1,.92-.69c.6-.36,1.39-.32,1.59-1.52,0-.22.25-.34.4-.47s.57-.49.87-.72a.88.88,0,0,1,.39-.16c.53,0,1.05-.1,1.57-.12s.85,0,1.27,0c.57,0,1.15.1,1.73,0a3.77,3.77,0,0,1,2.15.57c.78.41,1.46.67,2.18.21.52-.33,1.14,3.29,1.69,3a13.27,13.27,0,0,0,1.31-.91c.39,0,.93.14,1.46.16a1.09,1.09,0,0,0,.56-.27l2.44-1.66a.39.39,0,0,1,.3,0c1.17.38,1.79-.44,2.25-1.78.28-.81.61-1.77,1.43-1.57a8,8,0,0,1,2.87,2.18c.63.61,1.26,1,2,.67a2,2,0,0,1,1.88.46,2.34,2.34,0,0,0,2.41.15,10.08,10.08,0,0,0,1.28-.71.54.54,0,0,1,.46,0,1.8,1.8,0,0,0,1.49-.12,1.92,1.92,0,0,1,.92-.14,1.85,1.85,0,0,0,1.78-.42c.31-.32.84-.27,1.27-.31,1-.1,1.83-.94,2.78-1.31s1.64-.53,2.45-.8c.15-.06.36.12.55.18s.52.27.71.18c.43-.2.8.08,1.22.24s.72-.32,1.14-.54c1.19.2,2.5.39,3.81.66a4,4,0,0,1,.93.37.68.68,0,0,0,1.06-.4c.42-1,1-1,1.78-.45,0,0,.11,0,.23,0,.35-1.34,1.46-1.12,2.17-1.84a10.18,10.18,0,0,1,1.87-1.31,1.61,1.61,0,0,1,2.06,0c.35.26.85-.17,1.23.05s.81.54,1.24.44a1,1,0,0,0,.83-1,1.57,1.57,0,0,0,1.53-.56c.53-.6,1.27-.45,2-.09.1.05.21.19.31.19,1,0,1.78.82,2.6,1.65a1.78,1.78,0,0,0,1.79.66.31.31,0,0,1,.23,0l2.19,1.17c.62.34,1.18.71,1.85.33a2.81,2.81,0,0,1,2.55-.15,11,11,0,0,1,1.25.6,4.46,4.46,0,0,0,2.78.43,6.64,6.64,0,0,1,1.23-.18c.69.05,1.4.23,2.09.35.22,0,.48.17.63,0,.57-.41,1,.15,1.5.64a1.89,1.89,0,0,1,.2.27,2.78,2.78,0,0,0,2.25,1.32,3.07,3.07,0,0,0,2.68-1.11,2.17,2.17,0,0,1,1-.4,4.18,4.18,0,0,1,2.4-.3c.2.06.41-.08.62-.1a1.68,1.68,0,0,1,.86,0c.58.23.92-.08,1.2-.67s.64-1.22,1.36-.58c.13.12.35,0,.53,0,.39,0,.81-.19,1.18,0,.89.5,1.58,0,2.31-.28.14-.06.3-.17.42-.09a1.78,1.78,0,0,0,1.58.11c.2-.07.39-.18.67-.31.44.22,1,.53,1.56.77a.87.87,0,0,0,.53,0,4.16,4.16,0,0,1,.77-.14c.27,0,.48-.21.69-.27.86-.23,1.47-1.05,2.25-1.45.11,0,.3-.12.36,0,.51.68,1,.49,1.57.55l1.21.14c.46,0,.71-.43.88-.89s.54-.7,1-.58a1.24,1.24,0,0,0,1.17,0c.09-.07.27,0,.39.06a11.35,11.35,0,0,0,3.35,1.29,5.44,5.44,0,0,0,2,.27,6.41,6.41,0,0,1,2.14.49,2.23,2.23,0,0,0,.4.16,4.05,4.05,0,0,1,2.07.78c.22.16.53.31.71.22.46-.26.85,0,1.3.38a5.35,5.35,0,0,0,2.05.91c.89.25,1.76.3,2.64.6.29.1.57.48.85.53a3.69,3.69,0,0,0,1.65,0,5.22,5.22,0,0,1,3.39.17,11.51,11.51,0,0,0,2.09.33c.56.12,1.13.43,1.68.49s1.32-.16,2,0a3,3,0,0,1,2.52,1.34.75.75,0,0,0,.3.26c1.27.7,2.54,1.46,3.84,1.19.26-.06.49.1.76.2,1.42.56,2.9,1.5,4.17.21a3.31,3.31,0,0,1,.81-.55.68.68,0,0,1,.44-.08,10.88,10.88,0,0,0,2,.36,3.51,3.51,0,0,1,1.64.59,2.21,2.21,0,0,0,1.35.19,34.61,34.61,0,0,1,3.65.25c.68,0,1.46.68,2.18,1.16a14.41,14.41,0,0,0,2.44,1.77,4.38,4.38,0,0,0,2.51,0c.54-.12.92-.33,1.49.36a2,2,0,0,0,1.41.71,11.3,11.3,0,0,1,3.55.89,2.18,2.18,0,0,0,1.82-.12,4.31,4.31,0,0,1,.62-.15,4,4,0,0,0,.91-.26,3.22,3.22,0,0,1,2.68-.39,3,3,0,0,1,1.55.6c.13.12.32.08.47.08s.32-.13.47-.06c.85.38,1.47-.29,2.18-.51a8.15,8.15,0,0,0,1.39-.61,1.14,1.14,0,0,0,.27-.23c.19-.19.47-.12.64.18a5,5,0,0,1,.48,1.37c.75,3.56,1.52,7.12,2.27,10.68,1.24,5.88,1.1,10,2.34,15.84,1,4.84,3.4,11.5,4.42,16.34,1.13,5.41,3.07,10.92,3.38,16.22.81,4-1.25,2.27-.47,6.25.1.48.17,1,.23,1.45a.94.94,0,0,1-.38,1,11.81,11.81,0,0,1-1.72.83c-.45.17-.93.17-1.39.3s1.77,3,1.36,3.34c-.66.54-1.35.3-2.08.07-.16-.06-.35-.27-.47-.22-1.33.57-2.73-.53-4.09-.63a9.39,9.39,0,0,0-2.12.17c-.46.06-.9-2.56-1.36-2.54a9.51,9.51,0,0,1-1.27-.19,1.49,1.49,0,0,0-1,.12,13.88,13.88,0,0,0-1.39,1.37l-1.09-.62c-.08,0-.2-.11-.24-.07-.57.77-1.47.49-2.11,1-.07.05-.13.14-.2.16l-1.85.23c-.12,0-.27,0-.37.08-.57.46-.6-3.25-1.28-3.31s-1.74-4.3-2.18-3.74c-.81-.61-1.42-.16-1.93.47a1.09,1.09,0,0,1-.95.48,1.51,1.51,0,0,0-1,.34c-.64.52-1.47.43-2,1.33-.2.35-.79.26-1.21.2a2.71,2.71,0,0,0-1.61.32c-.38.19-.8.25-1.19.4a.78.78,0,0,0-.46.34,1.37,1.37,0,0,1-1.64.78,1.42,1.42,0,0,0-1.19.41,4.31,4.31,0,0,0-1.12,1.1c-.18.32-.67.24-1,.37a1.42,1.42,0,0,0-.7.4c-.3.42-.57.69-1,.23h-.08c-.79.83-2-.25-2.78.63-.09.11-.24.23-.35.18-.68-.29-1.19.19-1.77.37a10.7,10.7,0,0,1-1.79.24c-.13,0-.29.08-.4,0-.66-.58-1.26-.17-1.89-.3a1.23,1.23,0,0,0-.66,0,7.83,7.83,0,0,1-2.25.4,2.35,2.35,0,0,0-2.27,1.23.87.87,0,0,1-1.24.52,3.38,3.38,0,0,0-1.1-.06l-.62-.06c-.11,0-.25-.12-.32-.07-.67.52-1.5.48-2.19,1A14.34,14.34,0,0,1,232,205a.68.68,0,0,1-.62,0,1,1,0,0,0-1.21.15,8.39,8.39,0,0,1-3.69,1.38c-.5.09-.86-.24-1.13-.84s-.42-1-.89-1c-.16,0-.33-.32-.5-.49-.34-.35-.66-.73-1.06-.46a.35.35,0,0,1-.39-.08c-.43-.49-1-.67-1.37-1.14a2.22,2.22,0,0,0-1.11-.8c-.08,0-.17,0-.24-.09-1.54-1.39-3.22-2-4.81-3.15-.15-.1-.26-.35-.4-.47s-.53-.55-.76-.54a4.48,4.48,0,0,1-2.37-.92,1,1,0,0,0-.85,0c-.33.14-.61.48-.95.56a1.13,1.13,0,0,1-.86-.21c-.33-.21-.59-.46-.88-.07a.41.41,0,0,1-.53,0,1.73,1.73,0,0,0-1.64-.13c-.82.18-1.63.36-2.44.59a11.38,11.38,0,0,0-1.31.55c-.53.23-1,.63-1.67,0a.6.6,0,0,0-.4-.13,9.92,9.92,0,0,1-2.11,0,3,3,0,0,1-1.35-1c-.7-.8-1.35-1.74-2-2.6-.15-.19-.36-.41-.51-.4-.81.11-1.61-.68-2.45-.59a17.46,17.46,0,0,1-2.4.58c-.76-.23-2.29.92-2.41.83-.56-.4-.08.55-1.69,1.68-.52-.3-.3-.38-.82-.45-.69-.09,0,0-2.34,1.17-.64-1-1.39,1.05-2.18.64-.26-.14-3.06,1.21-3.42.36a1.51,1.51,0,0,0-.51-.69c-.9-.48-1.66-1.59-2.61-1.82a3.5,3.5,0,0,1-1.71-1.4,3.54,3.54,0,0,0-1.55-1.31,5.74,5.74,0,0,1-1.27-1c-.25-.2-.51-.51-.76-.57a3.69,3.69,0,0,1-1.86-1.73,7.6,7.6,0,0,0-.75-.84,4.53,4.53,0,0,1-.54-.61c-.41-.67-1.33-1.22-1.75-.86a4.1,4.1,0,0,1-3.32.77,1.59,1.59,0,0,0-.59.14c-.18.05-.36.23-.52.14-.64-.35-1.08,0-1.54.42a3.47,3.47,0,0,1-1,.51,3.6,3.6,0,0,1-2.49.58,1,1,0,0,1-.48-.17c-.62-.6-1.09-.32-1.52.17a.78.78,0,0,1-.72.22c-.59,0-1.17.09-1.76.09a1.72,1.72,0,0,1-.79-.26c-.36-.25-.71-.57-1.07-.84a1.55,1.55,0,0,0-.46-.31c-.8-.17-1.61-.33-2.41-.44-.25,0-.49.12-.75.14s-.5.12-.68,0a.61.61,0,0,0-.82-.06,2.27,2.27,0,0,1-2,.38,1.35,1.35,0,0,0-.69,0,6.63,6.63,0,0,0-1,.18c-.48.12-1,.31-1.43.42s-1.05.52-1.7.1a.68.68,0,0,0-.69,0,9.15,9.15,0,0,1-4.45.93c-.57,0-1.13.12-1.71.09a6.9,6.9,0,0,1-1.27-.31c-.08,0-.18-.15-.23-.12-.76.42-1.68,0-2.43.6a4.09,4.09,0,0,1-2.35,1.15,1.11,1.11,0,0,0-.7.39C120.86,192.59,120.26,192.59,119.56,191.78Z"/></svg>