<svg id="Layer_1" data-name="Layer 1" xmlns="http://www.w3.org/2000/svg" viewBox="0 0 404.39 292"><defs><style>.cls-1{fill:#174274;}</style></defs><title>Artboard 16</title><path class="cls-1" d="M131.94,175.69a27.54,27.54,0,0,1-5.66,3.1,1.75,1.75,0,0,1-1.35,0,5.94,5.94,0,0,0-4.39-.06,9.34,9.34,0,0,1-1.92.25c-.31,0-.71,0-.91.13-1.09.91-2.51.8-3.72,1.32-.28.12-.6.12-.88.24-.56.24-1.1.51-1.65.78-.17.09-.32.32-.47.31-1-.07-1.55.57-2.17,1.17-.41.4-.85.68-1.39.11-.13-.15-.52-.15-.76-.08-1.14.32-2.25.75-3.4,1a17.09,17.09,0,0,1-2.28.23,12.25,12.25,0,0,0-3.53.58,2.42,2.42,0,0,1-2.31-.14c-.42.8-1.1.85-1.88.79a13.7,13.7,0,0,0-2.31.11c-1.07.11-2.14.22-3.19.4a2.28,2.28,0,0,0-1.08.58,3.43,3.43,0,0,1-3.13,1c-1.46-.23-2.82.37-4.22.66s-2.62,1-4.07.52a1.57,1.57,0,0,0-1,.33c-.79.49-1.51,1.08-2.31,1.53a6.42,6.42,0,0,1-3.3.78c-1.3,0-2.66-.26-3.94.42A4,4,0,0,1,63,192a4.77,4.77,0,0,0-2.42.73c-.48.29-.93.56-1.5.17-.13-.09-.37,0-.56,0a12.38,12.38,0,0,0-1.94.17c-.89.21-1.75.56-2.62.84-.32.11-.69.37-1,.28-1.58-.52-3.18-.18-4.77-.21a3.12,3.12,0,0,0-1.7.65c-.63.37-1.25.76-1.88,1.15-.06,0-.13.11-.2.11a6,6,0,0,0-1.93,0c-.53.17-.85.79-1.58.81-.48,0-.92.53-1.42.7-1.3.44-2.62.81-3.93,1.22a9.25,9.25,0,0,0-1.2.46,4.88,4.88,0,0,1-4.1.09c-.28-1.27-.57-2.63-.88-4q-1.64-7.14-3.3-14.3c-.76-3.25-1.55-6.49-2.3-9.75-1.25-5.45-4.61-8.34-5.77-13.81s-3.1-8.72-4.13-14.06c-.39-2.05-.67-4.12-1-6.19a1.34,1.34,0,0,1,.13-.79l.47-.95c.44-.91.81-1.7,1.7-2,1.36-.44,3-2.17,3.79-2a7.4,7.4,0,0,0,2.17-.19,5.75,5.75,0,0,1,.89-.16c1.12,0,2.24.17,3.36.13a3.39,3.39,0,0,0,1.83-.54,4.45,4.45,0,0,1,3.08-1,4.71,4.71,0,0,0,2.78-.58,6.58,6.58,0,0,1,2-.41,46.11,46.11,0,0,1,5.63-.46,2,2,0,0,1,.78.19,8.51,8.51,0,0,0,5.23.36,3.21,3.21,0,0,1,1.14-.16,1.36,1.36,0,0,0,1.68-1.08,4.43,4.43,0,0,1,1,0A2.1,2.1,0,0,0,52,127c.86-.49,1.54-1.28,2.67-1.34.46,0,.89-.62,1.35-.93.22-.15.51-.36.71-.31,1,.24,2-.08,3.06.24a7,7,0,0,0,2.05.22,1.45,1.45,0,0,1,1.2.57,2,2,0,0,0,1.92.74,2.63,2.63,0,0,1,1.33.17,1.49,1.49,0,0,0,1.76,0,5.17,5.17,0,0,1,1.37-.62,6.23,6.23,0,0,0,1.78-1c.85-.67,1.89-.37,2.86-.34.44,0,.88,0,1.31.09s1,.07,1.47.16a2.62,2.62,0,0,0,2,0,1,1,0,0,1,.57,0,2.22,2.22,0,0,0,1.75-.62,25,25,0,0,1,3.19-1.84c.55-.33,1.06-.75,1.61-1.09a13.6,13.6,0,0,1,1.38-.79c.91-.43,2-.48,2.44-1.68.07-.22.4-.36.62-.51q.65-.42,1.32-.81a2.42,2.42,0,0,1,.59-.2c.76-.12,1.52-.23,2.28-.32.61-.08,1.23-.11,1.84-.18.83-.1,1.67,0,2.52-.2a7.17,7.17,0,0,1,3.07.28,4.09,4.09,0,0,0,3.13-.06c.79-.4,1.7-.54,2.52-.87a21.75,21.75,0,0,0,2-1c.57,0,1.35,0,2.12,0a2.26,2.26,0,0,0,.83-.33l3.67-1.92a.76.76,0,0,1,.45,0c1.66.21,2.62-.66,3.4-2,.47-.82,1-1.8,2.21-1.7a9.1,9.1,0,0,1,4.06.92,3.11,3.11,0,0,0,2.77.41,3.76,3.76,0,0,1,2.68.2,4.92,4.92,0,0,0,3.49-.15,20.49,20.49,0,0,0,1.92-.86,1.19,1.19,0,0,1,.65,0,3.94,3.94,0,0,0,2.19-.31,4.6,4.6,0,0,1,1.33-.25,4,4,0,0,0,2.62-.63,4.35,4.35,0,0,1,1.88-.46c1.5-.23,2.73-1.15,4.13-1.63,1.2-.41,2.42-.72,3.62-1.09.23-.07.52.08.78.11a2.43,2.43,0,0,0,1,.08,3.06,3.06,0,0,1,1.75.08c.49.08,1.07-.4,1.7-.67,1.71,0,3.6.07,5.47.16a5.94,5.94,0,0,1,1.31.25,1.35,1.35,0,0,0,1.58-.54,1.89,1.89,0,0,1,2.62-.65,2.17,2.17,0,0,0,.34,0c.62-1.35,2.21-1.28,3.29-2.06a19.2,19.2,0,0,1,2.83-1.52,3.32,3.32,0,0,1,3-.28c.49.21,1.25-.27,1.79-.1a3.13,3.13,0,0,0,1.76.26,1.53,1.53,0,0,0,1.29-1.06,3.34,3.34,0,0,0,2.26-.73,3.2,3.2,0,0,1,2.88-.34c.15,0,.29.16.43.15a5.82,5.82,0,0,1,3.64,1.27,3.06,3.06,0,0,0,2.54.42.5.5,0,0,1,.32,0c1,.28,2.06.56,3.09.86a3.53,3.53,0,0,0,2.66.08,6.16,6.16,0,0,1,3.71-.47c.59.12,1.19.25,1.77.42a8.82,8.82,0,0,0,4,.07,16.72,16.72,0,0,1,1.8-.34c1,0,2,.05,3,.08.31,0,.68.1.91,0,.86-.47,1.47,0,2.12.44a1.44,1.44,0,0,1,.27.22,4,4,0,0,0,3.15,1,6.46,6.46,0,0,0,4-1.42,5.24,5.24,0,0,1,1.52-.51,9.45,9.45,0,0,1,3.5-.6,3.24,3.24,0,0,0,.9-.17,3.72,3.72,0,0,1,1.26-.15,1.67,1.67,0,0,0,1.79-.8c.51-.69,1-1.27,2-.74.18.1.51-.09.77-.12a4.58,4.58,0,0,1,1.71-.13c1.25.37,2.29-.16,3.38-.57.2-.07.44-.2.62-.15a3.59,3.59,0,0,0,2.27-.08c.3-.1.58-.23,1-.39.62.16,1.4.38,2.2.55a2,2,0,0,0,.76-.09,9.06,9.06,0,0,1,1.13-.23,4.79,4.79,0,0,0,1-.35c1.26-.34,2.21-1.21,3.38-1.69.16-.07.44-.16.53-.08.68.59,1.47.35,2.22.33l1.74,0a1.65,1.65,0,0,0,1.36-1,1.37,1.37,0,0,1,1.47-.69,2.69,2.69,0,0,0,1.7-.18.8.8,0,0,1,.57,0,19.65,19.65,0,0,0,4.75.84,11.81,11.81,0,0,0,2.85,0,12.84,12.84,0,0,1,3.07.21,3.89,3.89,0,0,0,.56.1,7.09,7.09,0,0,1,2.95.5,1.55,1.55,0,0,0,1,.12,2,2,0,0,1,1.86.21,8.78,8.78,0,0,0,2.91.61c1.26.14,2.52.07,3.77.26.4.06.78.39,1.18.4a8.35,8.35,0,0,0,2.4-.16,11,11,0,0,1,4.9-.27,27.16,27.16,0,0,0,3,.06c.81,0,1.61.27,2.41.25,1,0,1.93-.32,2.88-.29,1.24,0,2.56-.05,3.54,1a.89.89,0,0,0,.41.21c1.79.52,3.57,1.1,5.47.67a2.51,2.51,0,0,1,1.09.1c2,.36,4.09,1.09,6-.33a6.21,6.21,0,0,1,1.23-.63,1.44,1.44,0,0,1,.65-.14,22.62,22.62,0,0,0,2.84.11,5.85,5.85,0,0,1,2.32.36,4.74,4.74,0,0,0,1.95,0c1.75-.3,3.51,0,5.27-.22a7.59,7.59,0,0,1,3.07.85,19.64,19.64,0,0,0,3.39,1.41,9.42,9.42,0,0,0,3.64-.33c.79-.18,1.36-.44,2.13.16a3.14,3.14,0,0,0,2,.51,21.62,21.62,0,0,1,5.08.42,4.75,4.75,0,0,0,2.65-.35c.29-.11.62-.14.92-.22a9.28,9.28,0,0,0,1.33-.37,7.12,7.12,0,0,1,3.92-.72,5.4,5.4,0,0,1,2.21.38,1.25,1.25,0,0,0,.67,0c.23,0,.48-.17.68-.12,1.2.26,2.16-.47,3.21-.78a15.5,15.5,0,0,0,2.06-.77,1.79,1.79,0,0,0,.42-.25.66.66,0,0,1,.91.09,3.21,3.21,0,0,1,.58,1.27c.8,3.36,1.61,6.72,2.4,10.09,1.31,5.55.77,9.53,2.07,15.09,1.08,4.58,4,10.74,5.06,15.32,1.19,5.11,3.54,10.21,3.54,15.32.85,3.76,1.64,7.52,2.45,11.28a12.92,12.92,0,0,1,.2,1.39,1,1,0,0,1-.62,1,26.09,26.09,0,0,1-2.58,1c-.65.22-1.36.29-2,.46a8.24,8.24,0,0,0-2.19.69,4.17,4.17,0,0,1-3,.32c-.23,0-.49-.21-.67-.15-2,.73-3.92-.16-5.88-.09a21.8,21.8,0,0,0-3.1.43c-.67.12-1.32.39-2,.47s-1.22,0-1.83,0a3.46,3.46,0,0,0-1.45.24,25.26,25.26,0,0,0-2.12,1.51l-1.53-.46c-.11,0-.28-.09-.34,0-.9.82-2.17.67-3.15,1.26-.1.06-.2.16-.3.17-.9.17-1.8.31-2.7.47a1.39,1.39,0,0,0-.55.13,5.66,5.66,0,0,1-2.78.7,3.79,3.79,0,0,0-2.36,1.15,2.57,2.57,0,0,0-2.84.69,2.22,2.22,0,0,1-1.42.59,3.56,3.56,0,0,0-1.46.45c-1,.59-2.18.62-3,1.56-.33.36-1.17.35-1.78.34a6.1,6.1,0,0,0-2.36.52c-.57.23-1.18.35-1.77.54a1.6,1.6,0,0,0-.69.38,2.76,2.76,0,0,1-2.44,1,3.13,3.13,0,0,0-1.75.55,7.5,7.5,0,0,0-1.73,1.21c-.29.34-1,.32-1.49.5a2.72,2.72,0,0,0-1,.47c-.47.44-.89.74-1.53.35h-.11c-1.22.9-2.87,0-4.09,1a.79.79,0,0,1-.53.22,5.33,5.33,0,0,0-2.6.58,22.6,22.6,0,0,1-2.61.46c-.19,0-.43.12-.58,0-.9-.49-1.81,0-2.72-.06a2.57,2.57,0,0,0-.95.13,18.5,18.5,0,0,1-3.31.67,4.71,4.71,0,0,0-3.39,1.49,1.74,1.74,0,0,1-1.84.66,7,7,0,0,0-1.58.08l-.91,0c-.15,0-.34-.09-.45,0-1,.59-2.22.66-3.26,1.25a30.26,30.26,0,0,1-3.6,1.55,1.43,1.43,0,0,1-.91.08,2.07,2.07,0,0,0-1.76.3,18.43,18.43,0,0,1-5.47,1.81,1.36,1.36,0,0,1-1.57-.66c-.3-.5-.53-.92-1.2-.9-.23,0-.46-.27-.69-.42-.46-.29-.9-.62-1.5-.31a.68.68,0,0,1-.56,0c-.59-.43-1.37-.54-1.89-.95a3,3,0,0,0-1.54-.63,1.29,1.29,0,0,1-.35-.05c-2.11-1.17-4.5-1.55-6.71-2.45-.2-.09-.34-.31-.54-.42s-.72-.46-1.05-.42a7.9,7.9,0,0,1-3.37-.59,2.06,2.06,0,0,0-1.23.15c-.5.17-.93.53-1.43.66a2.25,2.25,0,0,1-1.23-.09c-.46-.17-.82-.37-1.27,0a.93.93,0,0,1-.78.11A3.48,3.48,0,0,0,255,188c-1.2.28-2.4.55-3.58.88-.67.18-1.3.46-1.95.7s-1.55.74-2.43.25a1.09,1.09,0,0,0-.57-.08,21.18,21.18,0,0,1-3.06.26,3.87,3.87,0,0,1-1.87-.79c-1-.7-1.81-1.53-2.72-2.28-.2-.16-.49-.36-.7-.32-1.19.2-2.28-.46-3.52-.27a2,2,0,0,1-2.27-1.22,1.09,1.09,0,0,0-1-.66,3.74,3.74,0,0,1-2.84-1.36,1.13,1.13,0,0,0-.49-.28c-.78-.32-1.55-.66-2.36-.91a7.53,7.53,0,0,0-2.23-.47,3,3,0,0,1-2.17-1.18,5.92,5.92,0,0,0-3-1.58,1.22,1.22,0,0,1-.72-.58,11.5,11.5,0,0,0-2-1.9,6.32,6.32,0,0,1-1.87-1.7,1.34,1.34,0,0,0-.69-.6c-1.26-.36-2.27-1.33-3.63-1.44A4.25,4.25,0,0,1,207,171.3a4.31,4.31,0,0,0-2.14-1.07,7.41,7.41,0,0,1-1.77-.82,3.22,3.22,0,0,0-1-.47,4.1,4.1,0,0,1-2.56-1.44,6.8,6.8,0,0,0-1-.72,3.9,3.9,0,0,1-.73-.53,2.38,2.38,0,0,0-2.47-.61,9,9,0,0,1-4.88,1.17,3.45,3.45,0,0,0-.87.21c-.26.07-.55.27-.77.21a2.64,2.64,0,0,0-2.27.6,7.08,7.08,0,0,1-1.44.61,8.08,8.08,0,0,1-3.67.89,1.9,1.9,0,0,1-.68-.11,1.8,1.8,0,0,0-2.22.35,1.61,1.61,0,0,1-1.06.31c-.86.05-1.71.23-2.56.32a3.1,3.1,0,0,1-1.13-.16c-.5-.2-1-.46-1.47-.68a1.84,1.84,0,0,0-.65-.24c-1.15-.06-2.3-.12-3.45-.13a7.61,7.61,0,0,0-1.11.24c-.33.05-.73.18-1,0a1.2,1.2,0,0,0-1.19,0,5,5,0,0,1-2.88.61,3.2,3.2,0,0,0-1,.11,14.34,14.34,0,0,0-1.45.3c-.71.18-1.4.42-2.11.59a3.91,3.91,0,0,1-2.46.3,1.6,1.6,0,0,0-1,.13,20.12,20.12,0,0,1-6.53,1.47c-.83.07-1.65.26-2.48.31a14.07,14.07,0,0,1-1.82-.14c-.11,0-.25-.12-.33-.09-1.13.51-2.43.25-3.57.89a8.75,8.75,0,0,1-3.5,1.42,2.31,2.31,0,0,0-1,.47A2.09,2.09,0,0,1,131.94,175.69Z"/></svg>