<svg id="Layer_1" data-name="Layer 1" xmlns="http://www.w3.org/2000/svg" viewBox="0 0 1921.37 1061.61"><defs><style>.cls-1,.cls-7,.cls-8,.cls-9{opacity:0.4;}.cls-2{fill:#e6b33b;}.cls-3{fill:#fbf8f0;}.cls-4{fill:#f2d593;}.cls-5{fill:#f8ad8c;}.cls-6{fill:#646565;}.cls-7{fill:#f58959;}.cls-8{fill:#333;}.cls-9{fill:#ebe1ba;}.cls-10{fill:#174273;}</style></defs><title>bg</title><g class="cls-1"><g class="cls-1"><path id="path1_fill" data-name="path1 fill" class="cls-2" d="M1896,430.32c4.39,11,2.4,23.4-1.42,34.55s-9.35,21.87-11.76,33.29c-2.26,10.73-2.26,23.13-10,30.93-4.25,4.32-10.06,6.55-15.86,8.08-29,7.66-62-.55-83.85-20.89-7.08-6.69-13.31-14.91-15.3-24.38-1.7-7.95-.42-16.16,2.13-24a85.12,85.12,0,0,1,41.92-49.17,88,88,0,0,1,54-8.22C1870.8,413.32,1889.49,414,1896,430.32Z" transform="translate(-0.89 -377.51)"/></g></g><g id="Group" class="cls-1"><g id="Vector"><path id="path0_fill" data-name="path0 fill" class="cls-3" d="M21.9,686.28C15.33,703,18.3,721.88,24,738.83s14,33.27,17.59,50.65c3.39,16.32,3.39,35.18,15,47,6.36,6.57,15,10,23.73,12.3,43.44,11.65,92.82-.85,125.45-31.79,10.6-10.17,19.92-22.68,22.89-37.09,2.54-12.08.64-24.58-3.18-36.45a127.43,127.43,0,0,0-143.46-87.3C59.62,660.43,31.86,661.48,21.9,686.28Z" transform="translate(-0.89 -377.51)"/></g><g id="Vector-2" data-name="Vector"><path id="path1_fill-2" data-name="path1 fill" class="cls-4" d="M208.87,1272.28c6.57,16.74,3.6,35.6-2.12,52.55s-14,33.27-17.59,50.65c-3.39,16.32-3.39,35.18-15,47-6.36,6.57-15.05,10-23.74,12.3-43.44,11.65-92.82-.85-125.45-31.79C14.33,1392.86,5,1380.35,2,1365.94c-2.54-12.08-.63-24.58,3.18-36.45a127.44,127.44,0,0,1,143.47-87.3C171.15,1246.43,199.12,1247.48,208.87,1272.28Z" transform="translate(-0.89 -377.51)"/></g><g id="Vector-3" data-name="Vector"><path id="path2_fill" data-name="path2 fill" class="cls-5" d="M1736.47,1245.26c12.31-2.23,24.92,2.37,35.75,8.6s20.92,14.1,32.49,19c10.83,4.6,23.59,7.13,30.27,16.77,3.56,5.19,4.75,11.72,5.19,18,2.08,31.45-13.2,63.5-38.87,81.74-8.46,5.94-18.25,10.54-28.48,10.68-8.61.15-17.06-3-24.63-7.12a90.63,90.63,0,0,1-42.87-53.26,89.6,89.6,0,0,1,2.52-57.11C1713.48,1267.66,1718.07,1248.67,1736.47,1245.26Z" transform="translate(-0.89 -377.51)"/></g><g id="Vector-4" data-name="Vector"><path id="path4_fill" data-name="path4 fill" class="cls-6" d="M1922.14,415c-.84-5.75-5.1-10.6-9.81-14.5s-10.12-7.18-14.31-11.56c-4-4.1-7.15-9.36-12.93-10.94a19.85,19.85,0,0,0-9.59.28c-15.67,3.48-29,14.7-33.86,28.58-1.59,4.51-2.35,9.5-.76,14,1.3,3.83,4.11,7,7.31,9.78a49.62,49.62,0,0,0,60.26,2.25C1914.76,428.17,1923.36,423.52,1922.14,415Z" transform="translate(-0.89 -377.51)"/><g id="Vector-5" data-name="Vector"><path id="path4_fill-2" data-name="path4 fill" class="cls-6" d="M272,873.81c-1.77-12.16-10.79-22.43-20.77-30.68s-21.42-15.2-30.27-24.46c-8.38-8.68-15.14-19.83-27.38-23.16-6.6-1.73-13.69-1-20.29.58-33.17,7.38-61.35,31.12-71.65,60.5-3.39,9.55-5,20.11-1.61,29.66,2.73,8.11,8.69,14.91,15.45,20.7,18.36,15.77,43.8,24.6,69.25,24A104.29,104.29,0,0,0,243,911.73C256.39,901.74,274.59,891.9,272,873.81Z" transform="translate(-0.89 -377.51)"/></g></g></g><path class="cls-7" d="M56.52,1088.62c-4.09,14.07,20.31,11.18,19.62,5.87a8.9,8.9,0,0,0-2-3.79c-2.76-3.82-3-8.83-9-6.36-2.13.87-5.9.82-7.54,2.57A4.23,4.23,0,0,0,56.52,1088.62Z" transform="translate(-0.89 -377.51)"/><path class="cls-8" d="M102.12,1113.2c-7.29-7.71-13,2.87-9.52,4.92a8.49,8.49,0,0,0,2.91.88c3.15.61,6.26,2.71,6.6-.67.12-1.2,1.3-2.61.74-4A3.67,3.67,0,0,0,102.12,1113.2Z" transform="translate(-0.89 -377.51)"/><path class="cls-7" d="M1764.28,1006.81c-2,5.73,8.15,5.09,8,2.87a3.73,3.73,0,0,0-.76-1.61c-1-1.64-1-3.72-3.59-2.83-.9.31-2.46.2-3.18.89A1.68,1.68,0,0,0,1764.28,1006.81Z" transform="translate(-0.89 -377.51)"/><path class="cls-9" d="M65,1142.74c-7.78-5.58-11.3,10.09-7.88,10.81a5.73,5.73,0,0,0,2.78-.43c2.95-.87,6.08.08,5.88-4.18-.08-1.51.77-3.82,0-5.21A2.73,2.73,0,0,0,65,1142.74Z" transform="translate(-0.89 -377.51)"/><path class="cls-9" d="M1672.64,1134c-10.21-7.32-14.83,13.24-10.34,14.19a7.48,7.48,0,0,0,3.65-.57c3.87-1.14,8,.11,7.72-5.49-.1-2,1-5,.07-6.83A3.47,3.47,0,0,0,1672.64,1134Z" transform="translate(-0.89 -377.51)"/><g class="cls-1"><path class="cls-10" d="M1691.53,1116.19c9.65,0,9.67-15,0-15s-9.67,15,0,15Z" transform="translate(-0.89 -377.51)"/></g><path class="cls-8" d="M1776.38,1066.19c23.51,6.83,18.68-33.93,9.81-32.77-2.4.31-4.37,2-6.33,3.4-6.38,4.6-14.75,5-10.63,15.09,1.46,3.56,1.38,9.85,4.29,12.6A7.09,7.09,0,0,0,1776.38,1066.19Z" transform="translate(-0.89 -377.51)"/><path class="cls-9" d="M91.64,495c-10.21-7.32-14.83,13.24-10.34,14.19a7.48,7.48,0,0,0,3.65-.57c3.87-1.14,8,.11,7.72-5.49-.1-2,1-5,.07-6.83A3.47,3.47,0,0,0,91.64,495Z" transform="translate(-0.89 -377.51)"/><g class="cls-1"><path class="cls-10" d="M110.53,477.19c9.65,0,9.67-15,0-15s-9.67,15,0,15Z" transform="translate(-0.89 -377.51)"/></g><path class="cls-9" d="M1798,816.74c-7.78-5.58-11.3,10.09-7.88,10.81a5.73,5.73,0,0,0,2.78-.43c2.95-.87,6.08.08,5.88-4.18-.08-1.51.77-3.82,0-5.21A2.73,2.73,0,0,0,1798,816.74Z" transform="translate(-0.89 -377.51)"/><path class="cls-7" d="M1734.52,723.62c-4.09,14.07,20.31,11.18,19.62,5.87a8.9,8.9,0,0,0-2-3.79c-2.76-3.82-3-8.83-9-6.36-2.13.87-5.9.82-7.54,2.57A4.23,4.23,0,0,0,1734.52,723.62Z" transform="translate(-0.89 -377.51)"/><path class="cls-8" d="M1780.12,748.2c-7.29-7.71-12.95,2.87-9.52,4.92a8.49,8.49,0,0,0,2.91.88c3.15.61,6.26,2.71,6.6-.67.12-1.2,1.3-2.61.74-4A3.67,3.67,0,0,0,1780.12,748.2Z" transform="translate(-0.89 -377.51)"/><path class="cls-9" d="M1743,777.74c-7.78-5.58-11.3,10.09-7.88,10.81a5.73,5.73,0,0,0,2.78-.43c2.95-.87,6.08.08,5.88-4.18-.08-1.51.77-3.82,0-5.21A2.73,2.73,0,0,0,1743,777.74Z" transform="translate(-0.89 -377.51)"/></svg>