<?xml version="1.0" encoding="utf-8"?>
<!-- Generator: Adobe Illustrator 22.0.1, SVG Export Plug-In . SVG Version: 6.00 Build 0)  -->
<svg version="1.1" id="Layer_1" xmlns="http://www.w3.org/2000/svg" xmlns:xlink="http://www.w3.org/1999/xlink" x="0px" y="0px"
	 viewBox="0 0 1200 1200" style="enable-background:new 0 0 1200 1200;" xml:space="preserve">
<style type="text/css">
	.st0{fill:#333333;}
	.st1{fill:none;}
</style>
<g>
	<g>
		<path class="st0" d="M259.4,1010.1l-36.7-83.6c-0.8-1.9-2.7-3.1-4.8-3.1c-2.1,0-4,1.2-4.8,3.1l-36.8,83.7l-0.8,1.8
			c-0.5,1.2-0.4,2.7,0.3,3.8c0.7,1.1,2,1.8,3.3,1.8h2.8c1.7,0,3.3-1.1,3.8-2.7l0.2-0.6l31.9-72.5l31.9,72.5l0.2,0.6
			c0.5,1.6,2.1,2.7,3.8,2.7h2.8c1.3,0,2.6-0.7,3.3-1.8c0.7-1.1,0.9-2.5,0.3-3.8L259.4,1010.1z"/>
		<path class="st0" d="M339.9,923.3h-2.5c-2.2,0-4,1.8-4,4l-0.1,68.7L282,925.5c-1.3-1.8-3.7-2.6-5.9-1.9c-2.2,0.7-3.7,2.7-3.7,5
			v84.9c0,2.2,1.8,4,4,4h2.5c2.2,0,4-1.8,4-4v-68.7l51.2,70.5c1.3,1.8,3.7,2.6,5.9,1.9c2.2-0.7,3.7-2.7,3.7-5l0.1-83.7v-1.3
			C343.9,925.1,342.1,923.3,339.9,923.3z"/>
		<path class="st0" d="M419.5,937.2c-6.8-8.2-16.2-13.1-26.3-13.9c-0.1,0-0.2,0-0.3,0h-31.8c-3,0-5.3,2.3-5.3,5.3v83.7
			c0,3,2.3,5.3,5.3,5.3h31.8c0.1,0,0.2,0,0.3,0c10.1-0.8,19.4-5.8,26.3-13.9c7.5-9,11.3-21,10.2-33.2
			C430.8,958.3,427.1,946.2,419.5,937.2z M419.2,970.9c1.6,18.4-10.3,34.5-26.6,36.1h-26.2v-73.1h26.2c16.3,1.6,28.2,17.7,26.6,36.1
			c0,0.1,0,0.2,0,0.3v0.3C419.2,970.6,419.2,970.7,419.2,970.9z"/>
		<path class="st0" d="M498.1,965.1c-11.7-4.4-23.9-8.9-23.9-15.6c0-8.6,9.5-15.6,21.2-15.6c11.7,0,21.2,7,21.2,15.6v1.3
			c0,2.2,1.8,4,4,4h2.5c2.2,0,4-1.8,4-4v-1.3c0-14.4-14.3-26.2-31.8-26.2c-17.5,0-31.8,11.7-31.8,26.2c0.1,14.2,16.8,20.4,31.6,25.9
			c11.8,4.4,24.1,9,24.1,15.9c0,8.3-11.2,15.6-23.9,15.6c-12.9,0-23.9-7.2-23.9-15.6V990c0-2.2-1.8-4-4-4H465c-2.2,0-4,1.8-4,4v1.3
			c0,14.4,15.4,26.2,34.4,26.2c19,0,34.4-11.7,34.4-26.2C530,977,513,970.6,498.1,965.1z"/>
		<path class="st0" d="M579.9,923.3c-23.2,0-42,21.1-42,47.1c0,26,18.9,47.1,42,47.1s42-21.1,42-47.1
			C621.9,944.4,603.1,923.3,579.9,923.3z M579.9,1006.9c-17.4,0-31.5-16.4-31.5-36.6c0-20.2,14.1-36.6,31.5-36.6
			s31.5,16.4,31.5,36.6C611.4,990.5,597.3,1006.9,579.9,1006.9z"/>
	</g>
	<circle class="st0" cx="942.4" cy="501.4" r="102.3"/>
	<g>
		<path class="st1" d="M549.4,610.1c-37.4-28.4-75.8-55.7-112.6-85.1c-11.6-9.3-23.2-18.8-34.5-28.5
			c-46.2,20.2-119.1,77.4-122.7,143.6C270.8,801,430.2,868.3,533.1,852.7c82.3-12.5,156.4-63.4,193-107.3
			c-13.6-10.6-27.2-21.1-40.7-31.5C640.3,679,594.8,644.6,549.4,610.1z"/>
		<path class="st0" d="M1041.8,855.9c-3.5-37.2-17.9-73.2-40.8-105c-37.1-51.5-88.5-90.8-137.7-130c-21.2-16.8-42.7-33.2-64.4-49.3
			V427.4h24.1V400h-75.5v27.4h23.7v123.9c-35.5-25.7-71.4-50.9-107-76.4c-36-25.7-71.9-51.2-109.2-75.1
			c-51.4-32.9-108.7-66.5-122.2-131c-2.7-12.9-3.6-26.1-3.6-39.3c0-82.7,64.2-103.5,107.1-103.5c58.2,0,108.8,22.7,108.8,104.4
			c0,65-27.9,118.7-87.3,152.9c8.3,4.9,19.2,11.5,27.8,17.2c107-38.7,144.7-92,144.7-160.9c0-79.6-61.2-135.8-204.2-135.8
			c-119.4,0-234.8,57.2-234.8,197c0,72.6,38.3,127,86.9,173.6c-114.7,27.9-216.4,93.5-216.1,191.8c0.5,166.3,178,224.2,340.3,219.2
			c124-3.8,201.6-74.8,245-123.5c20.8,16.6,41.3,33.6,61,51.2c24,21.3,46.6,44.6,65.5,70.7c19.5,26.9,35.4,56.6,31.5,90.7
			c-2.3,20.3-9.2,39.9-22.7,55.6c-13,15.1-31,24.8-50,30.1h0c25.7-22.5,39.5-57.2,33.7-93.4c-9-55.8-61.5-93.6-117.3-84.6
			c-55.8,9-93.6,61.5-84.6,117.3c4.4,26.9,18.9,49.7,39,65c4.5,3.5,9.3,6.5,14.6,9.3c0.1,0,0.1,0.1,0.2,0.1c0.6,0.3,1.3,0.6,1.9,1
			c0.2,0.1,0.4,0.2,0.6,0.3c52.4,25.5,137.3,16.6,191.8-7.6c54.1-24.1,98.5-72.8,118.6-128.3
			C1041.1,911.7,1044.4,883.5,1041.8,855.9z M533.1,852.7C430.2,868.3,270.8,801,279.6,640.1c3.6-66.2,76.5-123.4,122.7-143.6
			c11.3,9.8,22.9,19.3,34.5,28.5c36.7,29.4,75.2,56.7,112.6,85.1c45.4,34.5,90.9,68.9,136.1,103.7c13.5,10.4,27.1,20.9,40.7,31.5
			C689.5,789.3,615.4,840.2,533.1,852.7z"/>
	</g>
</g>
</svg>
